<?xml version="1.0" standalone="no"?>
<!DOCTYPE svg PUBLIC "-//W3C//DTD SVG 20010904//EN"
 "http://www.w3.org/TR/2001/REC-SVG-20010904/DTD/svg10.dtd">
<svg version="1.0" xmlns="http://www.w3.org/2000/svg"
 width="512.000000pt" height="512.000000pt" viewBox="0 0 512.000000 512.000000"
 preserveAspectRatio="xMidYMid meet">
<metadata>
Created by potrace 1.14, written by Peter Selinger 2001-2017
</metadata>
<g transform="translate(0.000000,512.000000) scale(0.100000,-0.100000)"
fill="#000000" stroke="none">
<path d="M2250 4824 c-464 -23 -1246 -89 -1428 -121 l-34 -6 5 -931 c5 -966 8
-1038 51 -1309 69 -425 206 -789 411 -1098 97 -144 177 -238 321 -379 177
-172 357 -310 612 -468 236 -147 342 -204 365 -198 31 8 336 190 485 290 448
300 721 592 925 986 180 347 278 724 317 1224 6 74 10 504 10 1007 l0 877 -37
6 c-151 24 -721 78 -1073 101 -221 15 -782 26 -930 19z m1035 -188 c316 -24
749 -67 757 -74 3 -4 14 -106 22 -227 18 -237 66 -922 66 -930 0 -3 -713 -5
-1585 -5 l-1585 0 0 48 c1 61 77 1113 82 1117 9 8 669 66 968 84 225 14 1030
6 1275 -13z m-504 -1351 c151 -8 512 -29 803 -45 292 -17 533 -30 538 -30 11
0 10 -172 -2 -355 -39 -584 -175 -1032 -431 -1415 -221 -331 -554 -608 -995
-827 l-152 -75 -133 66 c-598 292 -994 685 -1218 1207 -147 343 -217 703 -237
1220 l-7 177 119 7 c66 4 414 25 774 45 360 21 658 38 661 39 3 0 129 -6 280
-14z"/>
<path d="M2270 4454 c-81 -14 -352 -46 -441 -52 l-104 -7 -3 -102 -3 -103 -35
0 -35 0 3 -57 c3 -57 3 -58 36 -61 l32 -3 0 -80 0 -79 -35 0 -35 0 0 -60 0
-60 35 0 34 0 3 -112 3 -113 109 2 c60 2 168 13 240 25 96 16 166 22 261 20
72 -1 166 -2 210 -2 44 0 139 1 210 2 95 2 165 -4 261 -20 72 -12 180 -23 240
-25 l109 -2 3 113 3 112 35 0 35 0 -3 58 c-3 56 -3 57 -35 60 l-33 3 0 79 0
79 33 3 c32 3 32 4 35 61 l3 57 -35 0 -35 0 -3 103 -3 102 -60 3 c-33 1 -150
14 -260 29 -228 29 -386 33 -457 10 -41 -13 -53 -13 -88 -1 -41 14 -186 26
-230 18z m199 -114 l24 -12 -7 -222 c-3 -121 -9 -257 -12 -302 l-6 -81 -152
-6 c-83 -3 -191 -13 -241 -22 -105 -19 -240 -25 -240 -10 0 6 4 138 9 295 4
156 12 294 16 306 7 18 19 22 87 28 43 4 134 16 203 26 135 21 281 21 319 0z
m462 0 c35 -6 116 -16 179 -23 l115 -13 6 -99 c4 -55 9 -198 13 -317 l6 -218
-36 0 c-19 0 -115 11 -212 25 -115 17 -214 25 -282 24 l-105 -2 -6 139 c-4 77
-8 215 -10 309 l-4 169 40 13 c45 14 192 11 296 -7z"/>
<path d="M2195 4251 c-26 -5 -30 -11 -33 -44 l-3 -38 108 6 c59 4 114 8 121
11 6 2 12 19 12 39 l0 35 -87 -1 c-49 -1 -101 -4 -118 -8z"/>
<path d="M2010 4226 l-65 -11 -3 -39 -3 -38 73 7 c40 4 76 9 81 12 13 8 8 83
-5 82 -7 -1 -42 -7 -78 -13z"/>
<path d="M2210 4069 c-118 -13 -120 -14 -120 -54 0 -18 3 -36 8 -38 4 -2 48 2
97 9 50 7 114 13 143 13 l52 1 0 40 0 40 -52 -1 c-29 -1 -87 -5 -128 -10z"/>
<path d="M1953 4033 c-8 -2 -13 -22 -13 -45 0 -37 2 -40 23 -34 12 3 32 6 45
6 19 0 22 5 22 40 0 39 -1 40 -32 39 -18 0 -39 -3 -45 -6z"/>
<path d="M2200 3881 c-32 -6 -35 -9 -38 -45 l-3 -39 62 7 c34 3 84 6 110 6
l49 0 0 40 0 40 -72 -1 c-40 -1 -89 -4 -108 -8z"/>
<path d="M2010 3856 c-72 -11 -75 -12 -78 -39 -6 -53 -2 -55 90 -43 l83 11 0
39 c0 22 -4 40 -10 41 -5 1 -44 -3 -85 -9z"/>
<path d="M2690 4220 l0 -40 80 -2 c44 -1 88 -2 98 -2 12 -1 18 8 20 32 4 41
-21 52 -124 52 l-74 0 0 -40z"/>
<path d="M2950 4201 l0 -39 75 -11 c116 -17 115 -17 115 27 l0 39 -82 11
c-113 16 -108 18 -108 -27z"/>
<path d="M2700 4040 c0 -40 0 -40 39 -40 21 0 59 -3 85 -6 l46 -7 0 40 0 40
-61 7 c-110 11 -109 11 -109 -34z"/>
<path d="M2930 4020 c0 -36 2 -39 33 -44 48 -8 175 -26 181 -26 3 0 6 18 6 40
0 33 -4 40 -22 44 -28 6 -175 26 -188 26 -6 0 -10 -18 -10 -40z"/>
<path d="M2700 3855 c0 -20 6 -37 13 -39 6 -3 58 -7 115 -10 l102 -5 0 38 c0
37 -2 39 -37 45 -21 3 -73 6 -115 6 l-78 0 0 -35z"/>
<path d="M2997 3863 c-13 -12 -7 -71 7 -76 8 -3 46 -9 86 -13 l71 -7 -3 39
c-3 35 -6 39 -38 45 -75 14 -117 18 -123 12z"/>
<path d="M2536 3198 c-4 -9 -44 -130 -90 -270 l-82 -253 -281 -5 -281 -5 220
-160 c121 -88 222 -165 225 -172 2 -6 -32 -124 -77 -263 -45 -138 -80 -256
-78 -261 2 -5 100 61 218 147 118 86 221 158 227 161 7 3 113 -68 235 -157
122 -89 224 -158 225 -153 2 4 -35 125 -82 268 -46 143 -81 262 -76 265 4 3
106 77 226 165 l219 160 -274 3 c-164 1 -278 6 -284 12 -6 6 -49 128 -97 273
-56 169 -89 256 -93 245z m59 -495 c26 -65 50 -121 53 -125 4 -4 57 -9 117
-13 61 -3 121 -8 134 -11 24 -5 23 -6 -15 -37 -21 -18 -69 -58 -105 -89 l-67
-57 33 -131 c28 -110 31 -130 17 -125 -9 3 -62 35 -118 71 l-102 65 -111 -72
c-62 -39 -114 -69 -117 -67 -3 3 9 60 26 126 16 67 30 125 30 129 0 5 -45 46
-100 92 -55 45 -98 86 -95 90 2 5 60 11 127 15 73 4 128 12 134 19 6 7 31 63
55 124 24 62 47 113 50 113 4 0 28 -53 54 -117z"/>
<path d="M1438 3046 c-78 -76 -110 -148 -116 -256 l-4 -86 -65 33 c-74 37 -99
41 -107 16 -55 -189 54 -395 246 -468 40 -15 49 -23 58 -53 5 -20 8 -37 7 -39
-2 -1 -26 6 -54 17 -28 10 -74 22 -102 26 l-51 7 0 -60 c0 -183 148 -348 329
-370 48 -5 54 -9 72 -45 l20 -39 -38 8 c-42 8 -170 10 -178 2 -9 -10 25 -120
51 -164 32 -56 99 -117 163 -149 54 -28 151 -45 216 -39 36 3 42 1 63 -29 l22
-33 -72 -6 c-40 -4 -88 -12 -106 -19 -27 -10 -32 -16 -26 -34 22 -75 109 -172
189 -211 92 -45 183 -53 287 -23 36 11 39 9 127 -57 50 -37 91 -68 91 -70 0
-1 -25 -19 -56 -40 l-57 -37 29 -19 c39 -25 51 -24 104 11 25 16 51 30 58 30
7 0 33 -13 57 -30 50 -35 56 -35 95 -15 38 20 38 26 -2 50 -88 50 -88 45 13
119 l90 67 79 -17 c65 -14 88 -15 137 -5 79 15 153 54 207 106 47 45 101 138
93 160 -7 17 -84 35 -153 35 l-57 0 25 33 c25 31 29 32 99 33 133 3 210 35
293 123 48 53 89 131 101 194 l7 35 -49 6 c-26 4 -72 2 -102 -4 -30 -5 -57 -8
-59 -5 -3 3 2 21 11 40 14 30 22 35 51 35 20 0 57 7 83 16 154 51 252 178 269
350 l7 67 -56 -7 c-31 -3 -79 -15 -107 -26 -28 -11 -52 -20 -54 -20 -2 0 1 18
6 39 9 36 15 41 61 56 95 31 173 99 224 198 26 48 28 61 28 164 0 61 -3 115
-7 119 -11 10 -87 -14 -129 -41 l-37 -24 -4 82 c-6 112 -40 187 -119 263 -69
65 -73 64 -113 -26 -35 -79 -43 -166 -22 -249 19 -73 43 -117 100 -179 l39
-42 -13 -45 -13 -46 -24 43 c-23 42 -110 138 -124 138 -14 0 -68 -97 -83 -149
-38 -130 4 -292 98 -380 l25 -23 -21 -44 c-21 -42 -38 -49 -38 -16 0 24 -44
112 -73 147 l-26 30 -41 -40 c-23 -22 -55 -69 -73 -105 -30 -60 -32 -72 -32
-170 0 -101 1 -107 36 -171 l35 -66 -31 -38 -32 -38 -7 59 c-7 60 -48 164 -65
164 -15 0 -106 -72 -135 -107 -77 -92 -104 -236 -67 -353 11 -35 19 -65 18
-65 -1 -1 -18 -14 -38 -29 l-37 -27 5 65 c6 64 -12 166 -28 166 -5 0 -33 -11
-64 -24 -72 -33 -154 -111 -190 -183 -25 -50 -30 -73 -33 -160 -4 -108 -15
-133 -48 -115 -14 8 -17 27 -18 108 -1 90 -5 105 -34 166 -36 75 -104 143
-177 177 -74 35 -87 33 -97 -14 -5 -22 -8 -73 -6 -113 2 -39 1 -72 -2 -72 -3
1 -20 14 -39 30 l-33 28 16 50 c22 64 22 179 1 246 -9 29 -33 75 -54 102 -36
49 -126 124 -147 124 -18 0 -55 -96 -61 -156 -3 -30 -9 -54 -13 -54 -4 0 -18
13 -33 29 l-26 30 37 72 c35 69 37 76 37 173 0 88 -3 108 -27 158 -27 57 -101
148 -122 148 -17 0 -74 -89 -93 -147 l-18 -53 -23 43 -23 43 36 40 c77 84 115
212 96 320 -11 62 -68 185 -88 191 -18 6 -92 -66 -123 -121 -24 -42 -30 -47
-35 -31 -4 11 -11 31 -16 43 -8 21 -2 32 45 83 111 120 133 280 58 429 -15 30
-32 56 -38 57 -6 2 -36 -21 -66 -51z m69 -150 c7 -67 -11 -142 -45 -195 -32
-49 -47 -52 -56 -10 -18 93 1 192 51 257 22 30 27 32 35 18 5 -9 12 -41 15
-70z m2143 7 c30 -60 39 -171 18 -223 l-15 -35 -32 50 c-17 27 -36 65 -41 85
-13 47 -13 130 1 169 10 29 13 31 28 17 10 -9 28 -37 41 -63z m-2364 -285 c25
-23 54 -59 65 -80 23 -45 43 -138 31 -150 -13 -13 -78 38 -111 86 -27 39 -61
136 -61 173 0 25 31 13 76 -29z m2584 23 c0 -10 -9 -48 -20 -83 -21 -69 -67
-131 -119 -161 l-31 -18 0 40 c0 68 35 144 90 195 52 49 80 58 80 27z m-2244
-208 c4 -25 4 -66 0 -91 -7 -56 -53 -155 -69 -149 -7 2 -17 19 -24 38 -26 73
-9 184 37 250 22 29 24 30 36 14 7 -10 16 -38 20 -62z m1919 -25 c24 -83 12
-204 -22 -215 -6 -2 -24 22 -40 54 -24 49 -28 70 -28 138 0 49 5 89 14 104
l14 25 23 -27 c13 -15 30 -51 39 -79z m-2129 -294 c64 -36 120 -112 138 -186
8 -35 -1 -35 -63 -4 -73 38 -127 108 -156 204 -6 22 -5 23 17 17 12 -4 42 -18
64 -31z m2319 -10 c-26 -88 -86 -154 -169 -189 -21 -9 -40 -14 -43 -11 -12 12
32 109 70 152 34 39 121 94 149 94 4 0 1 -21 -7 -46z m-360 -169 c0 -78 -3
-96 -25 -134 -14 -24 -29 -45 -34 -45 -17 -2 -34 68 -35 139 0 50 5 83 20 114
32 71 40 77 58 44 11 -20 16 -55 16 -118z m-1604 88 c40 -82 34 -256 -9 -271
-7 -2 -24 22 -38 53 -23 50 -26 67 -22 139 4 77 19 126 37 126 5 0 20 -21 32
-47z m283 -470 c17 -49 21 -159 8 -181 -12 -18 -55 31 -86 98 -19 40 -26 72
-26 117 0 97 7 104 51 54 21 -23 44 -63 53 -88z m1073 17 c-4 -69 -27 -125
-72 -179 -15 -17 -31 -29 -36 -25 -15 9 -10 137 7 186 8 25 31 65 51 88 36 42
37 42 46 19 5 -13 7 -53 4 -89z m-1469 70 c23 -10 58 -31 78 -46 35 -27 89
-106 82 -123 -5 -15 -107 17 -153 49 -42 29 -105 106 -105 129 0 17 51 12 98
-9z m1862 11 c0 -5 -15 -31 -33 -57 -38 -55 -117 -109 -181 -122 -49 -10 -50
-10 -43 20 11 43 78 110 141 139 60 28 116 38 116 20z m-1190 -357 c49 -44 88
-123 97 -192 7 -66 -10 -69 -67 -12 -53 53 -81 112 -87 182 -7 69 1 72 57 22z
m478 -17 c-5 -67 -38 -135 -90 -186 -53 -53 -68 -53 -68 2 0 58 47 153 98 200
57 50 65 48 60 -16z m-750 -66 c50 -26 125 -99 116 -113 -11 -17 -120 0 -179
27 -51 25 -115 83 -115 107 0 19 130 4 178 -21z m1142 17 c0 -18 -74 -83 -121
-106 -53 -25 -153 -40 -163 -23 -15 24 69 99 141 126 47 17 143 20 143 3z"/>
</g>
</svg>
